<svg width="32" height="32" viewBox="0 0 32 32" fill="none" xmlns="http://www.w3.org/2000/svg">
<path d="M0 16C0 7.16344 7.16344 0 16 0C24.8366 0 32 7.16344 32 16V29C32 30.6569 30.6569 32 29 32H3C1.34315 32 0 30.6569 0 29V16Z" fill="#AFC1D1"/>
<mask id="path-2-inside-1_1_1766" fill="white">
<path d="M8.0411 25.0005V11.9096H10.8089V22.7185H16.4211V25.0005H8.0411ZM23.0464 11.9096V25.0005H20.2787V14.5367H20.202L17.2041 16.416V13.9614L20.4449 11.9096H23.0464Z"/>
</mask>
<path d="M8.0411 25.0005H5.5411V27.5005H8.0411V25.0005ZM8.0411 11.9096V9.40958H5.5411V11.9096H8.0411ZM10.8089 11.9096H13.3089V9.40958H10.8089V11.9096ZM10.8089 22.7185H8.30886V25.2185H10.8089V22.7185ZM16.4211 22.7185H18.9211V20.2185H16.4211V22.7185ZM16.4211 25.0005V27.5005H18.9211V25.0005H16.4211ZM10.5411 25.0005V11.9096H5.5411V25.0005H10.5411ZM8.0411 14.4096H10.8089V9.40958H8.0411V14.4096ZM8.30886 11.9096V22.7185H13.3089V11.9096H8.30886ZM10.8089 25.2185H16.4211V20.2185H10.8089V25.2185ZM13.9211 22.7185V25.0005H18.9211V22.7185H13.9211ZM16.4211 22.5005H8.0411V27.5005H16.4211V22.5005ZM23.0464 11.9096H25.5464V9.40958H23.0464V11.9096ZM23.0464 25.0005V27.5005H25.5464V25.0005H23.0464ZM20.2787 25.0005H17.7787V27.5005H20.2787V25.0005ZM20.2787 14.5367H22.7787V12.0367H20.2787V14.5367ZM20.202 14.5367V12.0367H19.4832L18.8741 12.4185L20.202 14.5367ZM17.2041 16.416H14.7041V20.9337L18.5319 18.5342L17.2041 16.416ZM17.2041 13.9614L15.8668 11.8492L14.7041 12.5853V13.9614H17.2041ZM20.4449 11.9096V9.40958H19.72L19.1075 9.79734L20.4449 11.9096ZM20.5464 11.9096V25.0005H25.5464V11.9096H20.5464ZM23.0464 22.5005H20.2787V27.5005H23.0464V22.5005ZM22.7787 25.0005V14.5367H17.7787V25.0005H22.7787ZM20.2787 12.0367H20.202V17.0367H20.2787V12.0367ZM18.8741 12.4185L15.8763 14.2978L18.5319 18.5342L21.5298 16.6549L18.8741 12.4185ZM19.7041 16.416V13.9614H14.7041V16.416H19.7041ZM18.5414 16.0737L21.7822 14.0218L19.1075 9.79734L15.8668 11.8492L18.5414 16.0737ZM20.4449 14.4096H23.0464V9.40958H20.4449V14.4096Z" fill="#1C1F2A" mask="url(#path-2-inside-1_1_1766)"/>
</svg>
