<svg width="32" height="32" viewBox="0 0 32 32" fill="none" xmlns="http://www.w3.org/2000/svg">
<path d="M0 3C0 1.34315 1.34315 0 3 0H24C25.6569 0 27 1.33969 27 2.99655C27 5.1766 27 8.60954 27 13.5C27 23 32 25.5 32 29C32 30.6569 30.6569 32 29 32H12C5.37258 32 0 26.6274 0 20V3Z" fill="#AFC1D1"/>
<mask id="path-2-inside-1_1_1767" fill="white">
<path d="M4.93324 21.0005V9.36412H7.39347V18.9721H12.3821V21.0005H4.93324ZM13.9432 21.0005V19.2278L18.0852 15.3925C18.4375 15.0516 18.733 14.7448 18.9716 14.4721C19.214 14.1994 19.3977 13.9323 19.5227 13.6709C19.6477 13.4058 19.7102 13.1198 19.7102 12.813C19.7102 12.4721 19.6326 12.1785 19.4773 11.9323C19.322 11.6823 19.1098 11.491 18.8409 11.3584C18.572 11.2221 18.267 11.1539 17.9261 11.1539C17.5701 11.1539 17.2595 11.2259 16.9943 11.3698C16.7292 11.5137 16.5246 11.7202 16.3807 11.9891C16.2367 12.2581 16.1648 12.5781 16.1648 12.9494H13.8295C13.8295 12.188 14.0019 11.527 14.3466 10.9664C14.6913 10.4058 15.1742 9.97208 15.7955 9.66526C16.4167 9.35844 17.1326 9.20503 17.9432 9.20503C18.7765 9.20503 19.5019 9.35276 20.1193 9.64822C20.7405 9.93988 21.2235 10.3452 21.5682 10.8641C21.9129 11.3831 22.0852 11.9778 22.0852 12.6482C22.0852 13.0876 21.9981 13.5213 21.8239 13.9494C21.6534 14.3774 21.3485 14.8528 20.9091 15.3755C20.4697 15.8944 19.8504 16.5175 19.0511 17.2448L17.3523 18.9096V18.9891H22.2386V21.0005H13.9432Z"/>
</mask>
<path d="M4.93324 21.0005H2.43324V23.5005H4.93324V21.0005ZM4.93324 9.36412V6.86412H2.43324V9.36412H4.93324ZM7.39347 9.36412H9.89347V6.86412H7.39347V9.36412ZM7.39347 18.9721H4.89347V21.4721H7.39347V18.9721ZM12.3821 18.9721H14.8821V16.4721H12.3821V18.9721ZM12.3821 21.0005V23.5005H14.8821V21.0005H12.3821ZM7.43324 21.0005V9.36412H2.43324V21.0005H7.43324ZM4.93324 11.8641H7.39347V6.86412H4.93324V11.8641ZM4.89347 9.36412V18.9721H9.89347V9.36412H4.89347ZM7.39347 21.4721H12.3821V16.4721H7.39347V21.4721ZM9.8821 18.9721V21.0005H14.8821V18.9721H9.8821ZM12.3821 18.5005H4.93324V23.5005H12.3821V18.5005ZM13.9432 21.0005H11.4432V23.5005H13.9432V21.0005ZM13.9432 19.2278L12.2447 17.3934L11.4432 18.1355V19.2278H13.9432ZM18.0852 15.3925L19.7837 17.2269L19.804 17.2082L19.8238 17.189L18.0852 15.3925ZM18.9716 14.4721L17.1031 12.8112L17.0966 12.8185L17.0901 12.8258L18.9716 14.4721ZM19.5227 13.6709L21.7781 14.7496L21.784 14.737L19.5227 13.6709ZM19.4773 11.9323L17.3537 13.2515L17.3582 13.2588L17.3628 13.2661L19.4773 11.9323ZM18.8409 11.3584L17.7103 13.5882L17.7229 13.5946L17.7355 13.6008L18.8409 11.3584ZM16.3807 11.9891L18.5848 13.1688V13.1688L16.3807 11.9891ZM16.1648 12.9494V15.4494H18.6648V12.9494H16.1648ZM13.8295 12.9494H11.3295V15.4494H13.8295V12.9494ZM14.3466 10.9664L16.4762 12.2758L14.3466 10.9664ZM15.7955 9.66526L14.6884 7.42375L14.6884 7.42375L15.7955 9.66526ZM20.1193 9.64822L19.0402 11.9033L19.0485 11.9073L19.0568 11.9112L20.1193 9.64822ZM21.5682 10.8641L19.4857 12.2474L19.4857 12.2474L21.5682 10.8641ZM21.8239 13.9494L19.5084 13.0068L19.5048 13.0156L19.5013 13.0244L21.8239 13.9494ZM20.9091 15.3755L22.817 16.991L22.8228 16.9841L20.9091 15.3755ZM19.0511 17.2448L17.3686 15.3957L17.3344 15.4269L17.3014 15.4592L19.0511 17.2448ZM17.3523 18.9096L15.6025 17.124L14.8523 17.8592V18.9096H17.3523ZM17.3523 18.9891H14.8523V21.4891H17.3523V18.9891ZM22.2386 18.9891H24.7386V16.4891H22.2386V18.9891ZM22.2386 21.0005V23.5005H24.7386V21.0005H22.2386ZM16.4432 21.0005V19.2278H11.4432V21.0005H16.4432ZM15.6417 21.0622L19.7837 17.2269L16.3867 13.5581L12.2447 17.3934L15.6417 21.0622ZM19.8238 17.189C20.2097 16.8156 20.5562 16.4576 20.853 16.1183L17.0901 12.8258C16.9097 13.0321 16.6653 13.2877 16.3467 13.596L19.8238 17.189ZM20.8401 16.133C21.1998 15.7284 21.5298 15.2686 21.7781 14.7496L17.2674 12.5923C17.2675 12.5922 17.2651 12.597 17.2594 12.6069C17.2536 12.6168 17.2446 12.6313 17.2315 12.6503C17.205 12.6888 17.164 12.7427 17.1031 12.8112L20.8401 16.133ZM21.784 14.737C22.0736 14.1228 22.2102 13.4708 22.2102 12.813H17.2102C17.2102 12.7955 17.2121 12.7644 17.221 12.7238C17.2299 12.6829 17.2439 12.6421 17.2614 12.6049L21.784 14.737ZM22.2102 12.813C22.2102 12.0821 22.0394 11.3082 21.5918 10.5985L17.3628 13.2661C17.2992 13.1653 17.2584 13.0645 17.2351 12.9764C17.2125 12.8909 17.2102 12.8323 17.2102 12.813H22.2102ZM21.6009 10.6131C21.1942 9.9585 20.6259 9.45111 19.9463 9.11609L17.7355 13.6008C17.6738 13.5704 17.6007 13.5239 17.5275 13.4579C17.454 13.3917 17.3961 13.3197 17.3537 13.2515L21.6009 10.6131ZM19.9715 9.12869C19.3088 8.79266 18.6082 8.6539 17.9261 8.6539V13.6539C17.9296 13.6539 17.907 13.6542 17.865 13.6448C17.8218 13.6351 17.768 13.6174 17.7103 13.5882L19.9715 9.12869ZM17.9261 8.6539C17.2286 8.6539 16.4937 8.79697 15.8016 9.17267L18.187 13.5669C18.1109 13.6083 18.042 13.6314 17.9905 13.6434C17.9407 13.6549 17.9163 13.6539 17.9261 13.6539V8.6539ZM15.8016 9.17267C15.1021 9.55239 14.5483 10.1149 14.1765 10.8094L18.5848 13.1688C18.5485 13.2367 18.494 13.3155 18.4179 13.3922C18.3418 13.4691 18.2609 13.5268 18.187 13.5669L15.8016 9.17267ZM14.1765 10.8094C13.8005 11.5119 13.6648 12.255 13.6648 12.9494H18.6648C18.6648 12.9013 18.673 13.0042 18.5848 13.1688L14.1765 10.8094ZM16.1648 10.4494H13.8295V15.4494H16.1648V10.4494ZM16.3295 12.9494C16.3295 12.5765 16.4097 12.3841 16.4762 12.2758L12.217 9.65696C11.5941 10.6699 11.3295 11.7995 11.3295 12.9494H16.3295ZM16.4762 12.2758C16.5613 12.1375 16.6797 12.0168 16.9025 11.9068L14.6884 7.42375C13.6687 7.92735 12.8213 8.67404 12.217 9.65696L16.4762 12.2758ZM16.9025 11.9068C17.1256 11.7966 17.4515 11.705 17.9432 11.705V6.70503C16.8136 6.70503 15.7078 6.92026 14.6884 7.42375L16.9025 11.9068ZM17.9432 11.705C18.4828 11.705 18.8249 11.8003 19.0402 11.9033L21.1984 7.39311C20.1789 6.90522 19.0702 6.70503 17.9432 6.70503V11.705ZM19.0568 11.9112C19.3073 12.0288 19.4194 12.1475 19.4857 12.2474L23.6506 9.48088C23.0276 8.54287 22.1737 7.85094 21.1818 7.38523L19.0568 11.9112ZM19.4857 12.2474C19.5372 12.3248 19.5852 12.4306 19.5852 12.6482H24.5852C24.5852 11.5249 24.2886 10.4413 23.6506 9.48088L19.4857 12.2474ZM19.5852 12.6482C19.5852 12.7479 19.5672 12.8623 19.5084 13.0068L24.1394 14.8919C24.429 14.1803 24.5852 13.4273 24.5852 12.6482H19.5852ZM19.5013 13.0244C19.465 13.1154 19.3375 13.3599 18.9954 13.7669L22.8228 16.9841C23.3595 16.3457 23.8418 15.6394 24.1465 14.8743L19.5013 13.0244ZM19.0012 13.76C18.6601 14.1628 18.1284 14.7043 17.3686 15.3957L20.7337 19.0939C21.5723 18.3308 22.2793 17.626 22.817 16.991L19.0012 13.76ZM17.3014 15.4592L15.6025 17.124L19.102 20.6952L20.8009 19.0304L17.3014 15.4592ZM14.8523 18.9096V18.9891H19.8523V18.9096H14.8523ZM17.3523 21.4891H22.2386V16.4891H17.3523V21.4891ZM19.7386 18.9891V21.0005H24.7386V18.9891H19.7386ZM22.2386 18.5005H13.9432V23.5005H22.2386V18.5005Z" fill="#1C1F2A" mask="url(#path-2-inside-1_1_1767)"/>
</svg>
