<svg width="32" height="32" viewBox="0 0 32 32" fill="none" xmlns="http://www.w3.org/2000/svg">
<path d="M0 16C0 7.16344 7.16344 0 16 0C24.8366 0 32 7.16344 32 16V29C32 30.6569 30.6569 32 29 32H3C1.34315 32 0 30.6569 0 29V16Z" fill="#AFC1D1"/>
<path fill-rule="evenodd" clip-rule="evenodd" d="M13.999 12.217C14.1824 12.2813 14.3574 12.3557 14.5243 12.4401C15.2274 12.7895 15.7622 13.286 16.1287 13.9294C16.4994 14.5686 16.6848 15.3208 16.6848 16.1858C16.6848 16.9356 16.5453 17.595 16.2664 18.1641C16.2219 18.2548 16.1739 18.3433 16.1223 18.4294C15.7473 19.0516 15.204 19.5289 14.4923 19.8613C14.4533 19.8796 14.4138 19.8974 14.3739 19.9147L17.1514 25.0005H14.096L11.6164 20.3598H9.596V25.0005H6.82825V11.9095H11.993C12.6485 11.9095 13.2404 11.9873 13.7685 12.1428L13.8034 12.1532C13.8696 12.1733 13.9348 12.1945 13.999 12.217ZM12.7856 14.4088C12.8687 14.4449 12.9467 14.4849 13.0197 14.5289C13.2574 14.6723 13.4414 14.8581 13.5719 15.0864C13.7466 15.3847 13.8339 15.7512 13.8339 16.1858C13.8339 16.3108 13.8266 16.4299 13.8118 16.5431C13.7758 16.8195 13.6958 17.0605 13.5719 17.2661C13.4745 17.4316 13.3479 17.5735 13.1922 17.6917C13.0753 17.7805 12.9419 17.8559 12.792 17.9181C12.5899 18.0019 12.3579 18.0614 12.096 18.0968C12.0396 18.1044 11.9819 18.1108 11.9227 18.1162C11.7815 18.129 11.6323 18.1354 11.4753 18.1354H9.596V14.1723H11.4625C11.6508 14.1723 11.8276 14.1822 11.993 14.2019C12.0279 14.206 12.0622 14.2106 12.096 14.2156C12.3559 14.2542 12.5857 14.3186 12.7856 14.4088ZM24.2594 25.0005H21.4916V14.5367H21.4149L18.417 16.4159V13.9614L21.6578 11.9095H24.2594V25.0005Z" fill="#1C1F2A"/>
</svg>
