<svg width="32" height="32" viewBox="0 0 32 32" fill="none" xmlns="http://www.w3.org/2000/svg">
<path d="M32 3C32 1.34315 30.6569 0 29 0H8C6.34315 0 5 1.33969 5 2.99655C5 5.1766 5 8.60954 5 13.5C5 23 0 25.5 0 29C0 30.6569 1.34315 32 3 32H20C26.6274 32 32 26.6274 32 20V3Z" fill="#AFC1D1"/>
<mask id="path-2-inside-1_1_1769" fill="white">
<path d="M9.2223 21.0005V9.36412H13.8132C14.692 9.36412 15.442 9.52132 16.0632 9.83572C16.6882 10.1463 17.1636 10.5876 17.4893 11.1596C17.8189 11.7278 17.9837 12.3963 17.9837 13.1653C17.9837 13.938 17.817 14.6028 17.4837 15.1596C17.1503 15.7126 16.6674 16.1369 16.0348 16.4323C15.406 16.7278 14.6446 16.8755 13.7507 16.8755H10.6768V14.8982H13.353C13.8227 14.8982 14.2128 14.8338 14.5234 14.705C14.834 14.5762 15.0651 14.3831 15.2166 14.1255C15.3719 13.8679 15.4496 13.5478 15.4496 13.1653C15.4496 12.7789 15.3719 12.4531 15.2166 12.188C15.0651 11.9228 14.8321 11.7221 14.5178 11.5857C14.2071 11.4456 13.8151 11.3755 13.3416 11.3755H11.6825V21.0005H9.2223ZM15.5064 15.705L18.3984 21.0005H15.6825L12.853 15.705H15.5064ZM19.6541 21.0005V19.2278L23.7962 15.3925C24.1484 15.0516 24.4439 14.7448 24.6825 14.4721C24.925 14.1994 25.1087 13.9323 25.2337 13.6709C25.3587 13.4058 25.4212 13.1198 25.4212 12.813C25.4212 12.4721 25.3435 12.1785 25.1882 11.9323C25.0329 11.6823 24.8208 11.491 24.5518 11.3584C24.2829 11.2221 23.978 11.1539 23.6371 11.1539C23.281 11.1539 22.9704 11.2259 22.7053 11.3698C22.4401 11.5137 22.2356 11.7202 22.0916 11.9891C21.9477 12.2581 21.8757 12.5781 21.8757 12.9494H19.5405C19.5405 12.188 19.7128 11.527 20.0575 10.9664C20.4022 10.4058 20.8852 9.97208 21.5064 9.66526C22.1276 9.35844 22.8435 9.20503 23.6541 9.20503C24.4875 9.20503 25.2128 9.35276 25.8303 9.64822C26.4515 9.93988 26.9344 10.3452 27.2791 10.8641C27.6238 11.3831 27.7962 11.9778 27.7962 12.6482C27.7962 13.0876 27.709 13.5213 27.5348 13.9494C27.3643 14.3774 27.0594 14.8528 26.62 15.3755C26.1806 15.8944 25.5613 16.5175 24.7621 17.2448L23.0632 18.9096V18.9891H27.9496V21.0005H19.6541Z"/>
</mask>
<path d="M9.2223 21.0005H6.7223V23.5005H9.2223V21.0005ZM9.2223 9.36412V6.86412H6.7223V9.36412H9.2223ZM16.0632 9.83572L14.9343 12.0663L14.9424 12.0704L14.9506 12.0745L16.0632 9.83572ZM17.4893 11.1596L15.317 12.3968L15.3218 12.4054L15.3268 12.4139L17.4893 11.1596ZM17.4837 15.1596L19.6248 16.4501L19.6287 16.4437L17.4837 15.1596ZM16.0348 16.4323L14.9768 14.1672L14.9716 14.1696L16.0348 16.4323ZM10.6768 16.8755H8.17685V19.3755H10.6768V16.8755ZM10.6768 14.8982V12.3982H8.17685V14.8982H10.6768ZM14.5234 14.705L15.481 17.0144L15.481 17.0144L14.5234 14.705ZM15.2166 14.1255L13.0757 12.8346L13.0687 12.8462L13.0618 12.8579L15.2166 14.1255ZM15.2166 12.188L13.046 13.4283L13.0526 13.44L13.0594 13.4515L15.2166 12.188ZM14.5178 11.5857L13.4895 13.8645L13.5062 13.872L13.523 13.8793L14.5178 11.5857ZM11.6825 11.3755V8.87549H9.18253V11.3755H11.6825ZM11.6825 21.0005V23.5005H14.1825V21.0005H11.6825ZM15.5064 15.705L17.7005 14.5067L16.9896 13.205H15.5064V15.705ZM18.3984 21.0005V23.5005H22.6123L20.5925 19.8022L18.3984 21.0005ZM15.6825 21.0005L13.4776 22.1787L14.1839 23.5005H15.6825V21.0005ZM12.853 15.705V13.205H8.68263L10.648 16.8832L12.853 15.705ZM11.7223 21.0005V9.36412H6.7223V21.0005H11.7223ZM9.2223 11.8641H13.8132V6.86412H9.2223V11.8641ZM13.8132 11.8641C14.4 11.8641 14.7427 11.9693 14.9343 12.0663L17.1921 7.60511C16.1413 7.0733 14.984 6.86412 13.8132 6.86412V11.8641ZM14.9506 12.0745C15.1589 12.178 15.2523 12.2832 15.317 12.3968L19.6617 9.92233C19.0749 8.892 18.2175 8.11462 17.1758 7.59694L14.9506 12.0745ZM15.3268 12.4139C15.4001 12.5403 15.4837 12.761 15.4837 13.1653H20.4837C20.4837 12.0317 20.2377 10.9152 19.6519 9.90528L15.3268 12.4139ZM15.4837 13.1653C15.4837 13.5725 15.3988 13.775 15.3386 13.8755L19.6287 16.4437C20.2352 15.4305 20.4837 14.3034 20.4837 13.1653H15.4837ZM15.3425 13.869C15.2864 13.9621 15.1979 14.064 14.9768 14.1672L17.0928 18.6974C18.1369 18.2097 19.0142 17.4631 19.6248 16.4501L15.3425 13.869ZM14.9716 14.1696C14.7565 14.2707 14.3787 14.3755 13.7507 14.3755V19.3755C14.9106 19.3755 16.0555 19.1848 17.098 18.695L14.9716 14.1696ZM13.7507 14.3755H10.6768V19.3755H13.7507V14.3755ZM13.1768 16.8755V14.8982H8.17685V16.8755H13.1768ZM10.6768 17.3982H13.353V12.3982H10.6768V17.3982ZM13.353 17.3982C14.03 17.3982 14.7719 17.3084 15.481 17.0144L13.5659 12.3957C13.6152 12.3752 13.629 12.377 13.5908 12.3833C13.5525 12.3896 13.476 12.3982 13.353 12.3982V17.3982ZM15.481 17.0144C16.2273 16.7049 16.9105 16.1767 17.3715 15.393L13.0618 12.8579C13.1323 12.738 13.2238 12.6312 13.3261 12.5456C13.426 12.4621 13.5142 12.4171 13.5659 12.3957L15.481 17.0144ZM17.3576 15.4164C17.8037 14.6765 17.9496 13.8808 17.9496 13.1653H12.9496C12.9496 13.2149 12.9402 13.0594 13.0757 12.8346L17.3576 15.4164ZM17.9496 13.1653C17.9496 12.4476 17.8045 11.6598 17.3738 10.9245L13.0594 13.4515C12.9394 13.2465 12.9496 13.1102 12.9496 13.1653H17.9496ZM17.3872 10.9476C16.9354 10.1569 16.2589 9.61586 15.5125 9.29216L13.523 13.8793C13.4749 13.8584 13.3912 13.8142 13.2962 13.7323C13.1989 13.6484 13.1123 13.5444 13.046 13.4283L17.3872 10.9476ZM15.546 9.30695C14.8121 8.97583 14.0404 8.87549 13.3416 8.87549V13.8755C13.4576 13.8755 13.5242 13.8843 13.5509 13.889C13.5772 13.8937 13.5505 13.892 13.4895 13.8645L15.546 9.30695ZM13.3416 8.87549H11.6825V13.8755H13.3416V8.87549ZM9.18253 11.3755V21.0005H14.1825V11.3755H9.18253ZM11.6825 18.5005H9.2223V23.5005H11.6825V18.5005ZM13.3123 16.9033L16.2043 22.1988L20.5925 19.8022L17.7005 14.5067L13.3123 16.9033ZM18.3984 18.5005H15.6825V23.5005H18.3984V18.5005ZM17.8875 19.8223L15.0579 14.5268L10.648 16.8832L13.4776 22.1787L17.8875 19.8223ZM12.853 18.205H15.5064V13.205H12.853V18.205ZM19.6541 21.0005H17.1541V23.5005H19.6541V21.0005ZM19.6541 19.2278L17.9556 17.3934L17.1541 18.1355V19.2278H19.6541ZM23.7962 15.3925L25.4947 17.2269L25.5149 17.2082L25.5347 17.189L23.7962 15.3925ZM24.6825 14.4721L22.814 12.8112L22.8075 12.8185L22.8011 12.8258L24.6825 14.4721ZM25.2337 13.6709L27.489 14.7496L27.495 14.737L25.2337 13.6709ZM25.1882 11.9323L23.0646 13.2515L23.0691 13.2588L23.0737 13.2661L25.1882 11.9323ZM24.5518 11.3584L23.4213 13.5882L23.4338 13.5946L23.4465 13.6008L24.5518 11.3584ZM22.0916 11.9891L24.2958 13.1688V13.1688L22.0916 11.9891ZM21.8757 12.9494V15.4494H24.3757V12.9494H21.8757ZM19.5405 12.9494H17.0405V15.4494H19.5405V12.9494ZM20.0575 10.9664L22.1872 12.2758L20.0575 10.9664ZM21.5064 9.66526L20.3993 7.42375L20.3993 7.42375L21.5064 9.66526ZM25.8303 9.64822L24.7511 11.9033L24.7594 11.9073L24.7678 11.9112L25.8303 9.64822ZM27.2791 10.8641L25.1967 12.2474L25.1967 12.2474L27.2791 10.8641ZM27.5348 13.9494L25.2193 13.0068L25.2157 13.0156L25.2122 13.0244L27.5348 13.9494ZM26.62 15.3755L28.528 16.991L28.5337 16.9841L26.62 15.3755ZM24.7621 17.2448L23.0795 15.3957L23.0453 15.4269L23.0123 15.4592L24.7621 17.2448ZM23.0632 18.9096L21.3134 17.124L20.5632 17.8592V18.9096H23.0632ZM23.0632 18.9891H20.5632V21.4891H23.0632V18.9891ZM27.9496 18.9891H30.4496V16.4891H27.9496V18.9891ZM27.9496 21.0005V23.5005H30.4496V21.0005H27.9496ZM22.1541 21.0005V19.2278H17.1541V21.0005H22.1541ZM21.3526 21.0622L25.4947 17.2269L22.0976 13.5581L17.9556 17.3934L21.3526 21.0622ZM25.5347 17.189C25.9206 16.8156 26.2672 16.4576 26.564 16.1183L22.8011 12.8258C22.6206 13.0321 22.3762 13.2877 22.0576 13.596L25.5347 17.189ZM26.5511 16.133C26.9107 15.7284 27.2408 15.2686 27.489 14.7496L22.9783 12.5923C22.9784 12.5922 22.9761 12.597 22.9703 12.6069C22.9645 12.6168 22.9555 12.6313 22.9425 12.6503C22.916 12.6888 22.8749 12.7427 22.814 12.8112L26.5511 16.133ZM27.495 14.737C27.7845 14.1228 27.9212 13.4708 27.9212 12.813H22.9212C22.9212 12.7955 22.9231 12.7644 22.9319 12.7238C22.9409 12.6829 22.9548 12.6421 22.9724 12.6049L27.495 14.737ZM27.9212 12.813C27.9212 12.0821 27.7504 11.3082 27.3027 10.5985L23.0737 13.2661C23.0101 13.1653 22.9693 13.0645 22.9461 12.9764C22.9234 12.8909 22.9212 12.8323 22.9212 12.813H27.9212ZM27.3118 10.6131C26.9052 9.9585 26.3368 9.45111 25.6572 9.11609L23.4465 13.6008C23.3847 13.5704 23.3116 13.5239 23.2384 13.4579C23.1649 13.3917 23.107 13.3197 23.0646 13.2515L27.3118 10.6131ZM25.6824 9.12869C25.0197 8.79266 24.3191 8.6539 23.6371 8.6539V13.6539C23.6405 13.6539 23.6179 13.6542 23.5759 13.6448C23.5328 13.6351 23.4789 13.6174 23.4213 13.5882L25.6824 9.12869ZM23.6371 8.6539C22.9395 8.6539 22.2046 8.79697 21.5125 9.17267L23.898 13.5669C23.8219 13.6083 23.7529 13.6314 23.7014 13.6434C23.6516 13.6549 23.6272 13.6539 23.6371 13.6539V8.6539ZM21.5125 9.17267C20.8131 9.55239 20.2592 10.1149 19.8875 10.8094L24.2958 13.1688C24.2594 13.2367 24.2049 13.3155 24.1289 13.3922C24.0527 13.4691 23.9719 13.5268 23.898 13.5669L21.5125 9.17267ZM19.8875 10.8094C19.5115 11.5119 19.3757 12.255 19.3757 12.9494H24.3757C24.3757 12.9013 24.3839 13.0042 24.2958 13.1688L19.8875 10.8094ZM21.8757 10.4494H19.5405V15.4494H21.8757V10.4494ZM22.0405 12.9494C22.0405 12.5765 22.1206 12.3841 22.1872 12.2758L17.9279 9.65696C17.3051 10.6699 17.0405 11.7995 17.0405 12.9494H22.0405ZM22.1872 12.2758C22.2722 12.1375 22.3907 12.0168 22.6135 11.9068L20.3993 7.42375C19.3797 7.92735 18.5322 8.67404 17.9279 9.65696L22.1872 12.2758ZM22.6135 11.9068C22.8365 11.7966 23.1625 11.705 23.6541 11.705V6.70503C22.5246 6.70503 21.4187 6.92026 20.3993 7.42375L22.6135 11.9068ZM23.6541 11.705C24.1938 11.705 24.5358 11.8003 24.7511 11.9033L26.9094 7.39311C25.8898 6.90522 24.7812 6.70503 23.6541 6.70503V11.705ZM24.7678 11.9112C25.0183 12.0288 25.1303 12.1475 25.1967 12.2474L29.3616 9.48088C28.7385 8.54287 27.8847 7.85094 26.8928 7.38523L24.7678 11.9112ZM25.1967 12.2474C25.2481 12.3248 25.2962 12.4306 25.2962 12.6482H30.2962C30.2962 11.5249 29.9995 10.4413 29.3616 9.48088L25.1967 12.2474ZM25.2962 12.6482C25.2962 12.7479 25.2781 12.8623 25.2193 13.0068L29.8503 14.8919C30.14 14.1803 30.2962 13.4273 30.2962 12.6482H25.2962ZM25.2122 13.0244C25.176 13.1154 25.0484 13.3599 24.7063 13.7669L28.5337 16.9841C29.0704 16.3457 29.5527 15.6394 29.8574 14.8743L25.2122 13.0244ZM24.7121 13.76C24.371 14.1628 23.8394 14.7043 23.0795 15.3957L26.4446 19.0939C27.2832 18.3308 27.9903 17.626 28.528 16.991L24.7121 13.76ZM23.0123 15.4592L21.3134 17.124L24.813 20.6952L26.5118 19.0304L23.0123 15.4592ZM20.5632 18.9096V18.9891H25.5632V18.9096H20.5632ZM23.0632 21.4891H27.9496V16.4891H23.0632V21.4891ZM25.4496 18.9891V21.0005H30.4496V18.9891H25.4496ZM27.9496 18.5005H19.6541V23.5005H27.9496V18.5005Z" fill="#1C1F2A" mask="url(#path-2-inside-1_1_1769)"/>
</svg>
